<svg width="92" height="36" viewBox="0 0 92 36" fill="none" xmlns="http://www.w3.org/2000/svg">
<rect x="1" y="1" width="90" height="34" rx="4" stroke="#646D70"/>
<path d="M15.892 22C15.812 22 15.744 21.972 15.688 21.916C15.632 21.86 15.604 21.792 15.604 21.712V13.9C15.604 13.812 15.632 13.74 15.688 13.684C15.744 13.628 15.812 13.6 15.892 13.6H19C19.968 13.6 20.732 13.824 21.292 14.272C21.852 14.72 22.132 15.372 22.132 16.228C22.132 16.82 21.984 17.312 21.688 17.704C21.4 18.096 21.012 18.38 20.524 18.556L22.276 21.616C22.3 21.664 22.312 21.708 22.312 21.748C22.312 21.82 22.284 21.88 22.228 21.928C22.18 21.976 22.124 22 22.06 22H20.968C20.832 22 20.728 21.964 20.656 21.892C20.584 21.82 20.528 21.748 20.488 21.676L18.94 18.832H17.272V21.712C17.272 21.792 17.244 21.86 17.188 21.916C17.14 21.972 17.072 22 16.984 22H15.892ZM17.272 17.476H18.964C19.452 17.476 19.816 17.368 20.056 17.152C20.296 16.928 20.416 16.616 20.416 16.216C20.416 15.816 20.296 15.504 20.056 15.28C19.824 15.048 19.46 14.932 18.964 14.932H17.272V17.476ZM26.1519 22.12C25.2639 22.12 24.5599 21.864 24.0399 21.352C23.5199 20.84 23.2399 20.112 23.1999 19.168C23.1919 19.088 23.1879 18.988 23.1879 18.868C23.1879 18.74 23.1919 18.64 23.1999 18.568C23.2319 17.968 23.3679 17.448 23.6079 17.008C23.8559 16.568 24.1959 16.232 24.6279 16C25.0599 15.76 25.5679 15.64 26.1519 15.64C26.7999 15.64 27.3439 15.776 27.7839 16.048C28.2239 16.312 28.5559 16.684 28.7799 17.164C29.0039 17.636 29.1159 18.184 29.1159 18.808V19.06C29.1159 19.14 29.0879 19.208 29.0319 19.264C28.9759 19.32 28.9039 19.348 28.8159 19.348H24.8319C24.8319 19.348 24.8319 19.36 24.8319 19.384C24.8319 19.408 24.8319 19.428 24.8319 19.444C24.8399 19.724 24.8919 19.984 24.9879 20.224C25.0919 20.456 25.2399 20.644 25.4319 20.788C25.6319 20.932 25.8679 21.004 26.1399 21.004C26.3639 21.004 26.5519 20.972 26.7039 20.908C26.8559 20.836 26.9799 20.756 27.0759 20.668C27.1719 20.58 27.2399 20.508 27.2799 20.452C27.3519 20.356 27.4079 20.3 27.4479 20.284C27.4959 20.26 27.5639 20.248 27.6519 20.248H28.6839C28.7639 20.248 28.8279 20.272 28.8759 20.32C28.9319 20.368 28.9559 20.428 28.9479 20.5C28.9399 20.628 28.8719 20.784 28.7439 20.968C28.6239 21.152 28.4479 21.332 28.2159 21.508C27.9839 21.684 27.6919 21.832 27.3399 21.952C26.9959 22.064 26.5999 22.12 26.1519 22.12ZM24.8319 18.34H27.4839V18.304C27.4839 17.992 27.4319 17.72 27.3279 17.488C27.2239 17.256 27.0719 17.072 26.8719 16.936C26.6719 16.8 26.4319 16.732 26.1519 16.732C25.8719 16.732 25.6319 16.8 25.4319 16.936C25.2319 17.072 25.0799 17.256 24.9759 17.488C24.8799 17.72 24.8319 17.992 24.8319 18.304V18.34ZM32.2017 22.12C31.7857 22.12 31.4097 22.04 31.0737 21.88C30.7377 21.712 30.4697 21.492 30.2697 21.22C30.0777 20.94 29.9817 20.628 29.9817 20.284C29.9817 19.724 30.2057 19.28 30.6537 18.952C31.1097 18.616 31.7097 18.392 32.4537 18.28L34.0977 18.04V17.788C34.0977 17.452 34.0137 17.192 33.8457 17.008C33.6777 16.824 33.3897 16.732 32.9817 16.732C32.6937 16.732 32.4577 16.792 32.2737 16.912C32.0977 17.024 31.9657 17.176 31.8777 17.368C31.8137 17.472 31.7217 17.524 31.6017 17.524H30.6537C30.5657 17.524 30.4977 17.5 30.4497 17.452C30.4097 17.404 30.3897 17.34 30.3897 17.26C30.3977 17.132 30.4497 16.976 30.5457 16.792C30.6417 16.608 30.7937 16.432 31.0017 16.264C31.2097 16.088 31.4777 15.94 31.8057 15.82C32.1337 15.7 32.5297 15.64 32.9937 15.64C33.4977 15.64 33.9217 15.704 34.2657 15.832C34.6177 15.952 34.8977 16.116 35.1057 16.324C35.3137 16.532 35.4657 16.776 35.5617 17.056C35.6577 17.336 35.7057 17.632 35.7057 17.944V21.712C35.7057 21.792 35.6777 21.86 35.6217 21.916C35.5657 21.972 35.4977 22 35.4177 22H34.4457C34.3577 22 34.2857 21.972 34.2297 21.916C34.1817 21.86 34.1577 21.792 34.1577 21.712V21.244C34.0537 21.396 33.9137 21.54 33.7377 21.676C33.5617 21.804 33.3457 21.912 33.0897 22C32.8417 22.08 32.5457 22.12 32.2017 22.12ZM32.6097 20.98C32.8897 20.98 33.1417 20.92 33.3657 20.8C33.5977 20.68 33.7777 20.496 33.9057 20.248C34.0417 19.992 34.1097 19.672 34.1097 19.288V19.036L32.9097 19.228C32.4377 19.3 32.0857 19.416 31.8537 19.576C31.6217 19.736 31.5057 19.932 31.5057 20.164C31.5057 20.34 31.5577 20.492 31.6617 20.62C31.7737 20.74 31.9137 20.832 32.0817 20.896C32.2497 20.952 32.4257 20.98 32.6097 20.98ZM39.5611 22.12C39.1451 22.12 38.7771 22.052 38.4571 21.916C38.1451 21.772 37.8851 21.572 37.6771 21.316C37.4691 21.06 37.3091 20.76 37.1971 20.416C37.0851 20.064 37.0211 19.68 37.0051 19.264C36.9971 19.12 36.9931 18.992 36.9931 18.88C36.9931 18.76 36.9971 18.628 37.0051 18.484C37.0211 18.084 37.0811 17.712 37.1851 17.368C37.2971 17.024 37.4571 16.724 37.6651 16.468C37.8811 16.204 38.1451 16 38.4571 15.856C38.7771 15.712 39.1451 15.64 39.5611 15.64C39.9931 15.64 40.3571 15.716 40.6531 15.868C40.9571 16.012 41.2091 16.2 41.4091 16.432V13.768C41.4091 13.688 41.4331 13.62 41.4811 13.564C41.5371 13.508 41.6091 13.48 41.6971 13.48H42.7171C42.7971 13.48 42.8651 13.508 42.9211 13.564C42.9771 13.62 43.0051 13.688 43.0051 13.768V21.712C43.0051 21.792 42.9771 21.86 42.9211 21.916C42.8651 21.972 42.7971 22 42.7171 22H41.7691C41.6811 22 41.6091 21.972 41.5531 21.916C41.5051 21.86 41.4811 21.792 41.4811 21.712V21.268C41.2811 21.516 41.0251 21.72 40.7131 21.88C40.4091 22.04 40.0251 22.12 39.5611 22.12ZM40.0051 20.836C40.3411 20.836 40.6091 20.76 40.8091 20.608C41.0091 20.456 41.1571 20.264 41.2531 20.032C41.3491 19.792 41.4011 19.548 41.4091 19.3C41.4171 19.156 41.4211 19.004 41.4211 18.844C41.4211 18.676 41.4171 18.52 41.4091 18.376C41.4011 18.136 41.3451 17.908 41.2411 17.692C41.1371 17.468 40.9851 17.284 40.7851 17.14C40.5851 16.996 40.3251 16.924 40.0051 16.924C39.6691 16.924 39.4011 17 39.2011 17.152C39.0091 17.296 38.8691 17.488 38.7811 17.728C38.6931 17.968 38.6411 18.232 38.6251 18.52C38.6171 18.76 38.6171 19 38.6251 19.24C38.6411 19.528 38.6931 19.792 38.7811 20.032C38.8691 20.272 39.0091 20.468 39.2011 20.62C39.4011 20.764 39.6691 20.836 40.0051 20.836ZM47.6347 22C47.5547 22 47.4867 21.972 47.4307 21.916C47.3747 21.86 47.3467 21.792 47.3467 21.712V16.048C47.3467 15.968 47.3747 15.9 47.4307 15.844C47.4867 15.788 47.5547 15.76 47.6347 15.76H48.5707C48.6507 15.76 48.7187 15.788 48.7747 15.844C48.8307 15.9 48.8587 15.968 48.8587 16.048V16.456C49.0267 16.232 49.2507 16.044 49.5307 15.892C49.8187 15.732 50.1587 15.648 50.5507 15.64C51.4627 15.624 52.0987 15.98 52.4587 16.708C52.6427 16.388 52.9067 16.132 53.2507 15.94C53.6027 15.74 53.9907 15.64 54.4147 15.64C54.8307 15.64 55.2067 15.736 55.5427 15.928C55.8867 16.12 56.1547 16.412 56.3467 16.804C56.5467 17.188 56.6467 17.676 56.6467 18.268V21.712C56.6467 21.792 56.6187 21.86 56.5627 21.916C56.5067 21.972 56.4387 22 56.3587 22H55.3747C55.2947 22 55.2267 21.972 55.1707 21.916C55.1147 21.86 55.0867 21.792 55.0867 21.712V18.364C55.0867 18.004 55.0347 17.72 54.9307 17.512C54.8267 17.296 54.6867 17.144 54.5107 17.056C54.3347 16.968 54.1387 16.924 53.9227 16.924C53.7467 16.924 53.5707 16.968 53.3947 17.056C53.2187 17.144 53.0747 17.296 52.9627 17.512C52.8507 17.72 52.7947 18.004 52.7947 18.364V21.712C52.7947 21.792 52.7667 21.86 52.7107 21.916C52.6547 21.972 52.5867 22 52.5067 22H51.5227C51.4347 22 51.3627 21.972 51.3067 21.916C51.2587 21.86 51.2347 21.792 51.2347 21.712V18.364C51.2347 18.004 51.1787 17.72 51.0667 17.512C50.9547 17.296 50.8107 17.144 50.6347 17.056C50.4587 16.968 50.2707 16.924 50.0707 16.924C49.8867 16.924 49.7067 16.972 49.5307 17.068C49.3547 17.156 49.2107 17.304 49.0987 17.512C48.9867 17.72 48.9307 18.004 48.9307 18.364V21.712C48.9307 21.792 48.9027 21.86 48.8467 21.916C48.7907 21.972 48.7227 22 48.6427 22H47.6347ZM60.9348 22.12C60.2948 22.12 59.7548 22.008 59.3148 21.784C58.8828 21.56 58.5508 21.244 58.3188 20.836C58.0948 20.428 57.9668 19.952 57.9348 19.408C57.9268 19.264 57.9228 19.088 57.9228 18.88C57.9228 18.672 57.9268 18.496 57.9348 18.352C57.9668 17.8 58.0988 17.324 58.3308 16.924C58.5708 16.516 58.9068 16.2 59.3388 15.976C59.7788 15.752 60.3108 15.64 60.9348 15.64C61.5588 15.64 62.0868 15.752 62.5188 15.976C62.9588 16.2 63.2948 16.516 63.5268 16.924C63.7668 17.324 63.9028 17.8 63.9348 18.352C63.9428 18.496 63.9468 18.672 63.9468 18.88C63.9468 19.088 63.9428 19.264 63.9348 19.408C63.9028 19.952 63.7708 20.428 63.5388 20.836C63.3148 21.244 62.9828 21.56 62.5428 21.784C62.1108 22.008 61.5748 22.12 60.9348 22.12ZM60.9348 20.932C61.3588 20.932 61.6868 20.8 61.9188 20.536C62.1508 20.264 62.2788 19.868 62.3028 19.348C62.3108 19.228 62.3148 19.072 62.3148 18.88C62.3148 18.688 62.3108 18.532 62.3028 18.412C62.2788 17.9 62.1508 17.508 61.9188 17.236C61.6868 16.964 61.3588 16.828 60.9348 16.828C60.5108 16.828 60.1828 16.964 59.9508 17.236C59.7188 17.508 59.5908 17.9 59.5668 18.412C59.5588 18.532 59.5548 18.688 59.5548 18.88C59.5548 19.072 59.5588 19.228 59.5668 19.348C59.5908 19.868 59.7188 20.264 59.9508 20.536C60.1828 20.8 60.5108 20.932 60.9348 20.932ZM65.5644 22C65.4844 22 65.4164 21.972 65.3604 21.916C65.3044 21.86 65.2764 21.792 65.2764 21.712V16.06C65.2764 15.972 65.3044 15.9 65.3604 15.844C65.4164 15.788 65.4844 15.76 65.5644 15.76H66.5364C66.6164 15.76 66.6844 15.788 66.7404 15.844C66.8044 15.9 66.8364 15.972 66.8364 16.06V16.552C67.0204 16.296 67.2564 16.1 67.5444 15.964C67.8404 15.828 68.1804 15.76 68.5644 15.76H69.0564C69.1444 15.76 69.2124 15.788 69.2604 15.844C69.3164 15.9 69.3444 15.968 69.3444 16.048V16.912C69.3444 16.992 69.3164 17.06 69.2604 17.116C69.2124 17.172 69.1444 17.2 69.0564 17.2H68.1204C67.7364 17.2 67.4364 17.308 67.2204 17.524C67.0124 17.74 66.9084 18.036 66.9084 18.412V21.712C66.9084 21.792 66.8804 21.86 66.8244 21.916C66.7684 21.972 66.6964 22 66.6084 22H65.5644ZM72.8863 22.12C71.9983 22.12 71.2943 21.864 70.7743 21.352C70.2543 20.84 69.9743 20.112 69.9343 19.168C69.9263 19.088 69.9223 18.988 69.9223 18.868C69.9223 18.74 69.9263 18.64 69.9343 18.568C69.9663 17.968 70.1023 17.448 70.3423 17.008C70.5903 16.568 70.9303 16.232 71.3623 16C71.7943 15.76 72.3023 15.64 72.8863 15.64C73.5343 15.64 74.0783 15.776 74.5183 16.048C74.9583 16.312 75.2903 16.684 75.5143 17.164C75.7383 17.636 75.8503 18.184 75.8503 18.808V19.06C75.8503 19.14 75.8223 19.208 75.7663 19.264C75.7103 19.32 75.6383 19.348 75.5503 19.348H71.5663C71.5663 19.348 71.5663 19.36 71.5663 19.384C71.5663 19.408 71.5663 19.428 71.5663 19.444C71.5743 19.724 71.6263 19.984 71.7223 20.224C71.8263 20.456 71.9743 20.644 72.1663 20.788C72.3663 20.932 72.6023 21.004 72.8743 21.004C73.0983 21.004 73.2863 20.972 73.4383 20.908C73.5903 20.836 73.7143 20.756 73.8103 20.668C73.9063 20.58 73.9743 20.508 74.0143 20.452C74.0863 20.356 74.1423 20.3 74.1823 20.284C74.2303 20.26 74.2983 20.248 74.3863 20.248H75.4183C75.4983 20.248 75.5623 20.272 75.6103 20.32C75.6663 20.368 75.6903 20.428 75.6823 20.5C75.6743 20.628 75.6063 20.784 75.4783 20.968C75.3583 21.152 75.1823 21.332 74.9503 21.508C74.7183 21.684 74.4263 21.832 74.0743 21.952C73.7303 22.064 73.3343 22.12 72.8863 22.12ZM71.5663 18.34H74.2183V18.304C74.2183 17.992 74.1663 17.72 74.0623 17.488C73.9583 17.256 73.8063 17.072 73.6063 16.936C73.4063 16.8 73.1663 16.732 72.8863 16.732C72.6063 16.732 72.3663 16.8 72.1663 16.936C71.9663 17.072 71.8143 17.256 71.7103 17.488C71.6143 17.72 71.5663 17.992 71.5663 18.304V18.34Z" fill="#606B74"/>
</svg>
